<?xml version="1.0" encoding="UTF-8"?>
<!DOCTYPE svg PUBLIC "-//W3C//DTD SVG 1.1//EN" "http://www.w3.org/Graphics/SVG/1.1/DTD/svg11.dtd">
<!-- Creator: CorelDRAW 2017 -->
<svg xmlns="http://www.w3.org/2000/svg" xml:space="preserve" width="1in" height="1in" version="1.1" style="shape-rendering:geometricPrecision; text-rendering:geometricPrecision; image-rendering:optimizeQuality; fill-rule:evenodd; clip-rule:evenodd" viewBox="0 0 1000 1000" xmlns:xlink="http://www.w3.org/1999/xlink">
 <defs>
  <style type="text/css">
   <![CDATA[
    .fil8 {fill:none}
    .fil5 {fill:#FEFEFE}
    .fil0 {fill:#373435}
    .fil2 {fill:#FFFBD6}
    .fil1 {fill:#FED08F}
    .fil3 {fill:#FDC165}
    .fil7 {fill:#C7EAFB}
    .fil4 {fill:#008DD0}
    .fil6 {fill:#0F62AC}
    .fil9 {fill:#FEFEFE;fill-rule:nonzero}
   ]]>
  </style>
    <clipPath id="id0">
     <path d="M499.73 170.51c178.8,0 323.75,144.94 323.75,323.74 0,178.8 -144.94,323.75 -323.75,323.75 -178.8,0 -323.75,-144.94 -323.75,-323.75 0,-178.8 144.95,-323.74 323.75,-323.74z"/>
    </clipPath>
 </defs>
 <g id="Layer_x0020_1">
  <metadata id="CorelCorpID_0Corel-Layer"/>
  <g id="_2310561364528">
   <circle class="fil0" cx="500" cy="500" r="451.39"/>
   <path class="fil1" d="M499.73 170.51c178.8,0 323.75,144.94 323.75,323.74 0,178.8 -144.94,323.75 -323.75,323.75 -178.8,0 -323.75,-144.94 -323.75,-323.75 0,-178.8 144.95,-323.74 323.75,-323.74z"/>
   <g style="clip-path:url(#id0)">
    <g>
     <g>
      <g>
       <polygon id="1" class="fil2" points="516.29,138 483.17,138 495.59,478.79 503.87,478.79 "/>
       <polygon class="fil2" points="516.29,819.56 483.17,819.56 495.59,478.78 503.87,478.78 "/>
      </g>
      <g>
       <polygon class="fil2" points="603.93,153.9 571.94,145.33 495.73,477.72 503.73,479.86 "/>
       <polygon class="fil2" points="427.53,812.24 395.54,803.67 495.73,477.71 503.73,479.85 "/>
      </g>
      <g>
       <polygon class="fil2" points="684.46,191.94 655.78,175.38 496.15,476.72 503.31,480.85 "/>
       <polygon class="fil2" points="343.68,782.19 315,765.63 496.15,476.72 503.31,480.85 "/>
      </g>
      <g>
       <polygon class="fil2" points="752.41,249.53 728.99,226.11 496.8,475.86 502.66,481.71 "/>
       <polygon class="fil2" points="270.47,731.46 247.06,708.04 496.8,475.86 502.66,481.71 "/>
      </g>
      <g>
       <polygon class="fil2" points="803.13,322.74 786.57,294.06 497.66,475.2 501.8,482.37 "/>
       <polygon class="fil2" points="212.89,663.52 196.33,634.83 497.66,475.2 501.8,482.37 "/>
      </g>
      <g>
       <polygon class="fil2" points="833.19,406.58 824.61,374.59 498.66,474.79 500.8,482.78 "/>
       <polygon class="fil2" points="174.85,582.98 166.28,550.99 498.66,474.79 500.8,482.78 "/>
      </g>
      <g>
       <polygon class="fil2" points="840.51,495.35 840.51,462.22 499.73,474.65 499.73,482.93 "/>
       <polygon class="fil2" points="158.95,495.35 158.95,462.22 499.73,474.65 499.73,482.93 "/>
      </g>
      <g>
       <polygon class="fil2" points="824.61,582.98 833.19,550.99 500.8,474.79 498.66,482.78 "/>
       <polygon class="fil2" points="166.28,406.58 174.85,374.59 500.8,474.79 498.66,482.78 "/>
      </g>
      <g>
       <polygon class="fil2" points="786.57,663.52 803.13,634.83 501.8,475.2 497.66,482.37 "/>
       <polygon class="fil2" points="196.33,322.74 212.89,294.06 501.8,475.2 497.66,482.37 "/>
      </g>
      <g>
       <polygon class="fil2" points="728.99,731.46 752.41,708.04 502.66,475.86 496.8,481.71 "/>
       <polygon class="fil2" points="247.05,249.53 270.47,226.11 502.66,475.86 496.8,481.71 "/>
      </g>
      <g>
       <polygon class="fil2" points="655.78,782.19 684.46,765.63 503.31,476.72 496.15,480.85 "/>
       <polygon class="fil2" points="315,191.94 343.68,175.38 503.31,476.72 496.15,480.85 "/>
      </g>
      <g>
       <polygon class="fil2" points="571.93,812.24 603.93,803.67 503.73,477.71 495.73,479.85 "/>
       <polygon class="fil2" points="395.54,153.9 427.53,145.33 503.73,477.72 495.73,479.86 "/>
      </g>
     </g>
     <circle class="fil3" cx="499.73" cy="478.79" r="100.08"/>
     <path class="fil4" d="M494.11 421.07c36.59,6.19 101.68,49.59 108.2,74.02 13.5,15.43 -17.53,11.25 -4.02,26.68 12.73,15.05 22.57,40.91 35.3,55.96 9.65,9.65 19.29,32.49 28.94,42.14 5.4,-2.31 10.8,-4.63 16.2,-6.94 8.1,1.54 16.21,3.09 24.31,4.63 7.33,3.86 14.66,7.72 21.99,11.58 3.86,6.56 26.69,7.28 30.54,13.84 8.87,6.94 17.75,13.89 26.62,20.84 13.89,8.1 20.48,4.53 34.38,12.63 7.71,-1.54 10.32,12.23 18.04,10.69 0,-5.4 -6.56,-11.31 -6.56,-14.02 0,-2.7 -46.63,-1.95 -68.62,-36.68 -9.71,-15.34 -4.4,-8.09 8.56,-1.45 16.37,8.39 42.97,19.18 45.02,19.61 3.67,0.77 14.67,3.09 22,4.63 51.19,10.97 74.03,18.52 128.48,18.52 15.05,14.66 30.09,29.32 45.14,43.98 -18.52,30.1 -37.04,60.19 -55.56,90.29 -27.78,1.54 -55.56,3.09 -83.34,4.63 -24.31,-9.26 -48.61,-18.52 -72.92,-27.78 -39.74,-21.22 -79.48,-42.44 -119.23,-63.67 -44.76,-16.2 -89.41,-32.72 -134.27,-48.61 -4.15,-1.47 -8.98,-1.17 -12.73,-3.47 -1.77,-1.09 -0.39,-5 -2.31,-5.79 -5.4,-2.22 -11.67,-1.03 -17.36,-2.31 -6.31,-1.43 -12.53,-3.36 -18.52,-5.79 -8.31,-3.37 -54.3,19.9 -63.16,18.47 -4.26,-0.69 -7.56,4.22 -11.57,5.79 -4.89,1.91 -11.77,8.73 -15.05,4.63 -4.58,-5.73 4.8,-15.62 1.16,-21.99 -3.68,-6.44 -12.42,-8.89 -19.68,-10.42 -7.94,-1.67 -17.56,5.66 -24.31,1.16 -4.08,-2.72 7.17,-6.74 10.42,-10.42 5.63,-6.37 10.8,-13.12 16.2,-19.68 0,0 4.63,-19.68 -10.42,-21.99 -15.05,-2.31 -22.5,-32.36 -22.5,-32.36 -3.86,5.79 -5.35,14.25 -11.57,17.36 -6.9,3.45 -15.43,0 -23.15,0 0.39,-5.79 0.78,-11.57 1.16,-17.36 9.26,-8.49 18.52,-16.98 27.78,-25.46 3.09,-5.4 6.17,-10.8 9.26,-16.2 8.1,-5.79 16.2,-11.57 24.31,-17.36 9.65,-8.1 19.29,-16.21 28.94,-24.31 10.42,-6.56 20.83,-23.02 31.26,-29.58 0,0 17.94,-32.12 52.67,-38.42z"/>
     <path class="fil5" d="M353 537.63l3.94 -6.89c8.1,-5.79 16.2,-11.58 24.31,-17.36 9.65,-8.11 19.29,-16.21 28.94,-24.31 10.42,-6.56 20.82,-24.44 31.24,-31 3.37,-3.7 3.69,-7.87 11.48,-13.52 0.92,1.7 1.89,3.63 1.92,4.54 0.76,21.87 -16.24,36.12 -28.89,46.66 -11.57,9.64 -17.76,10.81 -29.73,25 -5.3,6.27 -26.09,11.99 -43.2,16.89z"/>
     <path class="fil5" d="M500.13 422.35c32.43,9.27 55.42,23.27 81.51,45.94 5.74,4.99 10.8,12.25 17.95,18.3 2.71,2.28 5.55,4.66 8.53,7.11 42.13,34.7 88.6,75.13 128.48,113.43 8.91,8.56 18.66,16.3 28.94,23.15 8.33,5.56 18.07,8.7 26.62,13.89 13.08,7.94 26.35,15.79 38.2,25.47 7.2,5.87 36.12,25.3 29.81,32.12 -11,11.89 -25.83,-15.52 -41.97,-16.92 -12.21,-1.06 -22.89,-9.65 -32.41,-17.37 -19.29,-15.64 -49.57,-21.97 -70.03,-36.04 -11.27,-7.74 -25.71,-10.67 -39.36,-11.57 -5.02,-0.33 -7.75,8.79 -12.73,8.11 -8.06,-1.11 -15.39,-6.69 -20.83,-12.74 -29.93,-33.22 -53.57,-71.88 -84.5,-104.17 -5.24,-5.48 4.25,14.57 5.79,21.99 2.7,13.04 16.7,21.94 20.42,34.74 2.51,8.61 12.01,15.35 11.58,24.31 -0.44,8.98 9.87,22.99 1.51,19.69 -17.32,-6.85 -21.02,-25.02 -29.34,-41.68 -5.37,-10.74 -26.57,-18.7 -28.88,-30.49 -2.33,-11.85 -0.63,-22.83 -4.9,-34.13 -3.47,-9.2 -12.04,-40.19 -19.43,-46.67 -6.27,-5.48 -18.72,0.39 -24.31,-5.79 -4.17,-4.61 1.54,-12.35 2.31,-18.52 0,0 5.47,-12.6 7.04,-12.15z"/>
     <path class="fil4" d="M149.21 671.2l14.2 -10.65 10.65 -26.04 7.1 0 15.39 -53.26c0,0 27.22,-3.55 35.5,-41.42 8.28,-37.87 81.66,-27.22 92.31,-7.1 3.93,7.43 17.79,21.09 31.84,42.48 4.35,6.62 6.09,18.69 10.91,25.52 7.36,10.44 32.46,28.35 39.77,37.75 14.34,18.44 9.66,25.52 14.52,29.17 14.2,10.65 -15.39,23.67 -15.39,23.67l-67.46 77.83c0,0 1.19,-11.83 -29.59,-21.3 -30.77,-9.47 -50.89,-13.02 -59.17,-30.77 -8.28,-17.75 -22.48,4.74 -22.48,4.74l-15.39 16.57c0,0 -44.97,-57.7 -62.72,-67.17z"/>
     <path class="fil5" d="M155.05 666.82l8.37 -6.27 10.65 -26.04 7.1 0 15.39 -53.26c0,0 27.22,-3.55 35.5,-41.42 3.75,-17.15 20.84,-24.34 39.42,-25.22l0.32 -0.02 1.18 -0.04 0.12 -0.01 0.01 0 0.06 0c0.44,-0.01 0.89,-0.02 1.33,-0.02l0.09 0c0.42,-0.01 0.84,-0.01 1.26,-0l0.21 0 1.17 0.02 0.15 0 0.03 0 0.33 0.01 0.89 0.03 0.53 0.02 0.81 0.04 0.48 0.03 1.22 0.07 0.07 0 1 0.07 0.1 0.01 0.8 0.07 0.17 0.02 0 0c18.44,1.7 35.78,8.81 40.56,17.82 3.93,7.43 17.79,21.09 31.84,42.48 0.73,1.12 63,72.56 63.62,73.94 -3.44,3.57 -15.17,-25.87 -33.02,-29.34 -13.39,-2.6 -35.24,-36.37 -38.12,-37.95 -8.39,-4.61 -7.19,6.58 -9.41,6.59 -2.4,0.01 -8.04,-11.3 -13.57,-21.37 -2.24,-4.09 -3.11,-13.66 -5.61,-16.41 -1.02,-1.13 -2.54,6.8 -0.11,15.89 2,7.48 8.26,16.45 5.89,15.81 -1.85,1.03 -9.65,-5.79 -12.57,-14.22 -1.48,-4.3 -4.41,-11.37 -4.9,-15.64 -0.84,-7.29 1.39,-10.93 0.8,-11.37 -1.98,-1.48 -3.64,-2.74 -4.74,-3.94 -5.2,-5.67 -3.64,-8.45 -20.82,-11.68 -3.87,-0.73 -12.21,-2.68 -14.98,2.2 -6.29,11.1 -7.16,22.77 -13.76,45.65 -3.7,3.79 -4.06,-32.79 -5.94,-27.2 -7.49,22.24 -4.59,53.09 -23.46,48.24 -0.75,-7.21 -4.17,0.85 -14.46,7.14 -0.03,0.02 -2.02,9.74 0.09,9.93 0.68,0.06 7.09,7.06 1.2,13.78 -15.03,17.17 -23.2,41.59 -55.38,41.59 -0.65,0 -1.28,-0.02 -1.9,-0.05z"/>
     <path class="fil6" d="M250.6 808.3c19.83,-10.53 -255.57,-33.22 -239.34,-48.73 5.8,-5.54 -3.67,-18.31 2.01,-23.96 15.74,-15.67 52.11,-4.13 60.35,-24.32 21.5,-52.66 134.93,24.27 246.13,-11.11 29.04,-9.24 206.49,-62.12 206.49,-62.12 24.62,0 49.71,-4.78 73.86,0 9.39,1.86 14.85,12.15 21.62,18.92l13.51 13.51c7.9,7.9 18.43,13.03 28.83,17.11 6.76,2.65 14.41,1.8 21.61,2.7 0,0 48.64,16.21 53.15,25.22 4.5,9.01 33.85,18.03 33.85,18.03 90.35,18.8 86.15,61.88 -11.88,33.78 -2.58,-0.74 2.4,4.81 3.6,7.21 0,0 14.06,-49.11 31.17,-13.98 17.11,35.13 78.67,112.9 51.35,129.71 -27.32,16.81 -109.3,67.26 -163.94,100.89 -136.92,-6.91 -273.83,-13.81 -410.75,-20.72 -21.31,-28.82 -42.63,-57.65 -63.95,-86.47 0,0 41.54,-75.24 42.34,-75.67z"/>
     <path class="fil7" d="M449.67 770.46l-75.67 7.2c0,0 0,9.91 -18.91,6.31 -18.92,-3.6 -27.93,-7.2 -38.73,-7.2 -10.81,0 -11.71,0 -11.71,0 0,0 -13.51,-0.9 -21.62,-2.7 -8.11,-1.8 -27.93,-34.23 -27.93,-34.23l46.84 5.41 30.63 6.3c0,0 24.32,6.31 30.63,6.31 6.31,0 20.72,2.7 33.33,2.7 12.61,0 27.93,0 36.03,0 8.11,0 32.43,3.61 17.11,9.91z"/>
     <path class="fil7" d="M507.32 841.63l50.44 -28.83c0,0 18.01,-11.71 35.13,-3.6 17.11,8.11 49.54,9.01 58.55,0 9.01,-9.01 36.03,-18.01 62.15,-9.91 26.12,8.11 53.15,10.81 63.06,20.72 9.91,9.91 9.01,99.08 -0.9,110.8 -9.91,11.71 -118.9,34.23 -154.03,34.23 -35.13,0 98.19,-77.46 98.19,-77.46l-10.81 -26.13c0,0 -50.44,6.31 -86.47,-10.81 -36.03,-17.11 -41.44,-13.51 -61.25,-13.51 -19.82,0 -15.31,-2.7 -27.93,0.9 -12.61,3.6 -22.52,12.61 -22.52,12.61 0,0 -4.5,-6.31 -3.6,-9.01z"/>
     <path class="fil7" d="M531.41 698.78c11.85,-0.05 23.7,-0.1 35.56,-0.15 6.46,-0.25 12.93,-0.5 19.39,-0.75 12.39,-0.16 24.78,-0.32 37.18,-0.48 4.62,3.9 4.24,7.81 0,11.71 -12.69,-0.14 -25.39,-0.28 -38.08,-0.43 0,0 -14.2,-1.88 -32.72,0.5 -18.53,2.37 -24.23,0 -27.56,-1.9 -3.33,-1.9 -4.85,-8.46 6.23,-8.5z"/>
     <path class="fil7" d="M603.9 742.82l-8.55 6.65 -1.43 12.83 14.73 -4.75 41.33 -0.48 21.38 0 21.38 0c0,0 2.38,-7.6 13.78,-8.07 11.4,-0.48 10.93,-13.3 -11.4,-15.2 -22.33,-1.9 -26.61,-0.95 -32.31,0.48 -5.7,1.43 -15.2,4.28 -21.38,4.28 -6.18,0 -14.26,0.95 -18.06,1.43 -3.8,0.48 -17.93,1.65 -19.48,2.85z"/>
     <path class="fil7" d="M435.95 719.12c3.07,-2.4 6.57,-5.57 10.45,-5.23 4.33,0.39 6.73,5.99 10.93,7.13 5.5,1.49 11.42,0.95 17.1,0.47 3.91,-0.32 7.52,-2.29 11.4,-2.85 4.87,-0.71 9.82,-0.63 14.73,-0.95 0,0 18.06,5.7 3.8,11.4 -14.26,5.7 -19,0.48 -25.66,0 -6.65,-0.48 -14.73,-0.95 -18.06,-0.48 -3.32,0.48 -12.35,0.95 -15.68,0.48 -3.33,-0.48 -16.18,-4.39 -9.03,-9.98z"/>
     <path class="fil7" d="M479.93 758.02c5.46,-0.83 9.7,-6.03 15.2,-6.65 3.54,-0.4 6.46,3.24 9.98,3.8 3.6,0.57 7.29,-0.74 10.93,-0.48 2.91,0.21 5.65,1.56 8.55,1.9 6.62,0.77 13.39,0.28 19.96,1.43 4.44,0.77 8.44,3.23 12.83,4.28 2.94,0.7 7.61,-1.72 9.03,0.95 1.33,2.52 -2.47,5.41 -4.75,7.13 -1.81,1.36 -4.48,2.09 -6.65,1.43 -2.46,-0.76 -3.8,-3.48 -5.7,-5.22 0,0 -30.88,0.95 -38.96,0 -8.07,-0.95 -8.55,-0.95 -8.55,-0.95 0,0 -6.65,-0.48 -11.4,-0.48 -4.75,0 -12.35,-0.48 -12.35,-0.48 0,0 -7.49,-5.22 1.9,-6.65z"/>
     <path class="fil7" d="M314.8 819.57l-8.56 6.65 -1.43 12.83 14.73 -4.75 41.33 -0.48 21.38 0 21.38 0c0,0 2.37,-7.6 13.78,-8.08 11.4,-0.47 10.93,-13.3 -11.41,-15.2 -22.33,-1.9 -26.61,-0.95 -32.31,0.47 -5.7,1.43 -15.2,4.28 -21.38,4.28 -6.18,0 -14.25,0.95 -18.06,1.43 -3.8,0.47 -17.93,1.65 -19.48,2.85z"/>
     <path class="fil7" d="M439.72 869.34c11.56,-0.83 20.52,-6.03 32.14,-6.65 7.47,-0.4 13.66,3.24 21.09,3.8 7.61,0.57 15.41,-0.74 23.1,-0.47 6.15,0.21 11.95,1.56 18.08,1.9 14,0.78 28.3,0.28 42.18,1.43 9.39,0.77 17.85,3.23 27.11,4.28 6.22,0.7 16.09,-1.72 19.08,0.95 2.82,2.52 -5.22,5.41 -10.04,7.13 -3.83,1.36 -9.48,2.09 -14.06,1.43 -5.21,-0.76 -8.04,-3.48 -12.05,-5.23 0,0 -65.28,0.95 -82.35,0 -17.07,-0.95 -18.08,-0.95 -18.08,-0.95 0,0 -14.06,-0.48 -24.1,-0.48 -10.04,0 -26.11,-0.47 -26.11,-0.47 0,0 -15.84,-5.22 4.02,-6.65z"/>
     <path class="fil7" d="M459.46 804.49c2.14,-1.67 4.58,-3.89 7.29,-3.65 3.02,0.27 4.7,4.18 7.62,4.97 3.84,1.04 7.97,0.67 11.93,0.33 2.72,-0.23 5.25,-1.6 7.96,-1.99 3.39,-0.49 6.85,-0.44 10.28,-0.66 0,0 12.59,3.98 2.65,7.96 -9.94,3.98 -13.26,0.33 -17.9,0 -4.64,-0.33 -10.28,-0.67 -12.59,-0.33 -2.32,0.33 -8.62,0.67 -10.94,0.33 -2.32,-0.33 -11.29,-3.06 -6.3,-6.96z"/>
     <path class="fil7" d="M329.23 853.33c5.47,-0.83 9.71,-6.03 15.2,-6.65 3.54,-0.4 6.46,3.24 9.98,3.8 3.6,0.57 7.29,-0.74 10.93,-0.48 2.91,0.21 5.65,1.56 8.55,1.9 6.63,0.77 13.39,0.28 19.96,1.43 4.44,0.77 8.44,3.22 12.83,4.28 2.94,0.7 7.61,-1.72 9.03,0.95 1.33,2.52 -2.47,5.41 -4.75,7.13 -1.81,1.36 -4.48,2.09 -6.65,1.43 -2.46,-0.76 -3.8,-3.48 -5.7,-5.22 0,0 -30.88,0.95 -38.96,0 -8.07,-0.95 -8.55,-0.95 -8.55,-0.95 0,0 -6.65,-0.47 -11.4,-0.47 -4.75,0 -12.35,-0.48 -12.35,-0.48 0,0 -7.49,-5.22 1.9,-6.65z"/>
     <path class="fil7" d="M320.63 728.67c5.47,-0.83 9.71,-6.03 15.2,-6.65 3.54,-0.4 6.46,3.24 9.98,3.8 3.6,0.57 7.29,-0.74 10.93,-0.48 2.91,0.21 5.65,1.56 8.56,1.9 6.62,0.77 13.38,0.28 19.95,1.43 4.44,0.77 8.44,3.23 12.83,4.28 2.94,0.7 7.61,-1.72 9.03,0.95 1.33,2.52 -2.47,5.41 -4.75,7.13 -1.81,1.36 -4.48,2.09 -6.65,1.43 -2.46,-0.76 -3.8,-3.48 -5.7,-5.23 0,0 -30.88,0.95 -38.96,0 -8.07,-0.95 -8.55,-0.95 -8.55,-0.95 0,0 -6.65,-0.48 -11.4,-0.48 -4.75,0 -12.35,-0.47 -12.35,-0.47 0,0 -7.49,-5.22 1.9,-6.65z"/>
    </g>
   </g>
   <path class="fil8" d="M499.73 170.51c178.8,0 323.75,144.94 323.75,323.74 0,178.8 -144.94,323.75 -323.75,323.75 -178.8,0 -323.75,-144.94 -323.75,-323.75 0,-178.8 144.95,-323.74 323.75,-323.74z"/>
   <g>
    <g>
     <path class="fil9" d="M148.39 500.1l-62.99 -0.77 0.14 -11.49 26.3 0.32 -26.13 -14.63 0.16 -13.05 25.94 16.23 37.06 -16.48 -0.15 12.89 -26.19 11 6.9 4.26 19.09 0.23 -0.14 11.49zm-21.15 -63.01l1.62 -9.85 -26.88 0.67 25.26 9.18zm22.21 20.73l-59.85 -24.24 2.56 -15.54 64.48 -3.89 -2.05 12.46 -16.13 0.5 -2.2 13.32 15.13 5.56 -1.94 11.82zm9.91 -51.35l-60.79 -16.5 3.07 -11.33 60.79 16.5 -3.07 11.33zm6.7 -22.45l-58.89 -22.37 4.17 -10.98 48.87 18.56 7.52 -19.8 10.02 3.81 -11.69 30.78zm-1.5 -61.71l4.65 -8.83 -25.71 -7.87 21.06 16.7zm14.51 26.7l-49.11 -41.93 7.34 -13.93 62.4 16.7 -5.89 11.18 -15.46 -4.63 -6.29 11.94 12.59 10.06 -5.59 10.6zm6.86 -57.41l6.78 -9.59 3.31 2.33c3.16,2.23 5.59,3.35 7.29,3.37 1.7,0.03 3.24,-0.94 4.61,-2.88 1.43,-2.03 2.01,-3.93 1.73,-5.72 -0.26,-1.78 -1.41,-3.37 -3.42,-4.79 -1.54,-1.09 -3.11,-1.65 -4.74,-1.69 -1.61,-0.04 -4.16,0.54 -7.63,1.77l-6.94 2.45c-5.93,2.15 -10.25,3.13 -12.98,2.93 -2.73,-0.2 -5.54,-1.33 -8.43,-3.38 -4.33,-3.05 -6.81,-6.72 -7.44,-11.02 -0.64,-4.3 0.63,-8.68 3.81,-13.19 3.37,-4.77 7.24,-7.5 11.65,-8.19 4.39,-0.71 9.03,0.67 13.91,4.11 0.49,0.35 0.87,0.61 1.12,0.81 0.27,0.2 0.48,0.39 0.67,0.56l-6.42 9.09 -1.37 -0.96c-2.78,-1.96 -5.1,-2.92 -6.94,-2.85 -1.84,0.07 -3.51,1.15 -4.98,3.23 -1.09,1.54 -1.49,3.07 -1.21,4.59 0.28,1.51 1.21,2.84 2.82,3.97 2.15,1.52 5.94,1.24 11.35,-0.84 0.05,-0.03 0.1,-0.04 0.14,-0.05l7.31 -2.75c5.15,-2 9.31,-2.89 12.46,-2.67 3.17,0.24 6.46,1.55 9.89,3.98 4.67,3.3 7.33,7.19 7.98,11.66 0.66,4.46 -0.78,9.18 -4.29,14.15 -3.65,5.17 -7.71,8.07 -12.15,8.71 -4.47,0.63 -9.43,-0.97 -14.92,-4.85 -0.57,-0.4 -1.49,-1.13 -2.76,-2.16l-0.2 -0.15zm46.48 -26.26l-45.83 -43.21 8 -8.48 17.98 16.95 11.02 -11.69 -17.98 -16.95 8 -8.48 45.83 43.21 -8 8.48 -20.77 -19.58 -11.02 11.69 20.77 19.59 -8 8.48z"/>
     <path class="fil9" d="M287.52 213.55l-34.37 -52.79 14.81 -9.64 29.48 29.46 -15.02 -38.88 14.81 -9.65 34.37 52.79 -9.39 6.12 -30.28 -46.96 20.65 53.23 -6.04 3.93 -40.33 -40.42 30.73 46.66 -9.43 6.14zm55.75 -62.54l9.1 -4.11 -15.45 -22.01 6.35 26.12zm-4.95 29.98l-12.98 -63.26 14.35 -6.48 38.96 51.52 -11.52 5.2 -9.35 -13.15 -12.3 5.56 3.75 15.67 -10.92 4.93zm48.28 -19.63l-17.69 -60.46 11.58 -3.39 28.11 37.67 -12.67 -42.18 10.64 -3.11 17.69 60.46 -11.5 3.36 -28.26 -37.71 12.7 42.26 -10.6 3.1zm58.38 -39.37l9.89 -1.39 -8.64 -25.46 -1.24 26.85zm-13.18 27.37l5.32 -64.35 15.59 -2.18 22.92 60.39 -12.51 1.75 -5.28 -15.24 -13.37 1.87 -0.8 16.1 -11.86 1.66zm50.03 -28.67l11.74 0.14 -0.05 4.05c-0.05,3.87 0.41,6.51 1.35,7.92 0.94,1.42 2.61,2.14 4.99,2.17 2.48,0.03 4.37,-0.57 5.69,-1.81 1.31,-1.23 1.98,-3.08 2.01,-5.54 0.02,-1.89 -0.41,-3.5 -1.3,-4.86 -0.87,-1.35 -2.81,-3.12 -5.78,-5.28l-5.95 -4.33c-5.13,-3.67 -8.39,-6.67 -9.77,-9.03 -1.38,-2.36 -2.05,-5.31 -2,-8.86 0.07,-5.29 1.68,-9.42 4.86,-12.38 3.18,-2.96 7.51,-4.41 13.03,-4.34 5.83,0.07 10.28,1.72 13.35,4.96 3.07,3.22 4.57,7.81 4.5,13.79 -0.01,0.6 -0.01,1.06 -0.04,1.38 -0.02,0.33 -0.05,0.61 -0.08,0.87l-11.13 -0.14 0.02 -1.68c0.04,-3.41 -0.48,-5.85 -1.58,-7.33 -1.1,-1.48 -2.93,-2.24 -5.49,-2.27 -1.89,-0.02 -3.37,0.52 -4.46,1.61 -1.09,1.09 -1.65,2.61 -1.68,4.57 -0.03,2.64 2.35,5.6 7.13,8.87 0.06,0.03 0.1,0.06 0.12,0.08l6.41 4.46c4.57,3.12 7.66,6.03 9.26,8.76 1.6,2.74 2.38,6.2 2.33,10.41 -0.07,5.72 -1.76,10.11 -5.07,13.19 -3.31,3.07 -8,4.57 -14.09,4.49 -6.32,-0.08 -11.02,-1.77 -14.07,-5.07 -3.06,-3.32 -4.55,-8.32 -4.46,-15.04 0.01,-0.7 0.08,-1.87 0.2,-3.5l0.01 -0.25zm63.72 -0.52l9.89 1.39 -1.31 -26.85 -8.57 25.47zm-20.2 22.7l22.81 -60.41 15.59 2.19 5.43 64.37 -12.52 -1.75 -0.88 -16.11 -13.37 -1.87 -5.2 15.26 -11.86 -1.66zm72.84 -24.3l6.46 1.93c3.26,0.98 5.72,1 7.38,0.08 1.67,-0.93 2.99,-3.08 4,-6.45 0.9,-3 0.83,-5.3 -0.19,-6.92 -1.03,-1.62 -3.37,-2.97 -7.02,-4.06l-5.52 -1.65 -5.11 17.08zm-21.28 31.6l18.04 -60.35 20.14 6.02c6.09,1.82 10.11,4.36 12.04,7.64 1.94,3.26 2.07,7.7 0.4,13.29 -1.17,3.91 -2.81,6.78 -4.92,8.61 -2.12,1.83 -4.63,2.52 -7.55,2.09 4.92,3 6.35,8.34 4.3,16.02 -0.1,0.33 -0.18,0.59 -0.23,0.78l-2.07 8.1c-0.57,2.3 -0.84,4.21 -0.78,5.72 0.06,1.5 0.44,2.91 1.13,4.2l-13.33 -3.98c-0.01,-1.11 0.12,-2.38 0.37,-3.8 0.25,-1.43 0.74,-3.39 1.43,-5.91l1.72 -6.36 0.48 -1.6c1.05,-3.51 1.02,-6.14 -0.08,-7.88 -1.09,-1.76 -3.93,-3.32 -8.49,-4.69l-3.84 -1.15 -7.92 26.5 -10.87 -3.25zm70.69 -9.98c-4.35,9.4 -6.53,15.57 -6.56,18.52 -0.03,2.96 1.44,5.11 4.41,6.48 2.91,1.35 5.47,1.08 7.65,-0.81 2.18,-1.89 5.46,-7.58 9.85,-17.09 4.39,-9.51 6.6,-15.73 6.63,-18.65 0.03,-2.92 -1.41,-5.06 -4.35,-6.42 -2.96,-1.37 -5.52,-1.07 -7.73,0.84 -2.2,1.92 -5.51,7.63 -9.9,17.15zm-10.87 -5.02c2.8,-6.06 5.31,-10.79 7.56,-14.15 2.24,-3.37 4.39,-5.68 6.45,-6.96 2.86,-1.83 5.69,-2.77 8.5,-2.82 2.82,-0.05 6.11,0.79 9.87,2.53 3.75,1.73 6.52,3.69 8.31,5.87 1.78,2.18 2.91,4.94 3.4,8.32 0.33,2.44 -0.05,5.59 -1.17,9.48 -1.11,3.87 -3.06,8.81 -5.85,14.86 -2.78,6.02 -5.28,10.7 -7.53,14.07 -2.24,3.36 -4.39,5.71 -6.45,7.05 -2.89,1.82 -5.73,2.75 -8.54,2.81 -2.82,0.05 -6.11,-0.79 -9.86,-2.52 -3.77,-1.74 -6.54,-3.7 -8.33,-5.88 -1.78,-2.17 -2.9,-4.94 -3.36,-8.3 -0.37,-2.4 0,-5.54 1.11,-9.43 1.1,-3.89 3.07,-8.87 5.87,-14.93zm42.22 56.06l22.15 -60.64 10.56 6.78 -19.29 47.36 34.3 -37.72 10.42 6.69 -45.16 45.86 -12.98 -8.34zm56.37 9.13l7.76 6.28 12.7 -23.7 -20.46 17.42zm-29 9.06l50.66 -40.05 12.24 9.9 -28.48 57.98 -9.83 -7.94 7.54 -14.26 -10.5 -8.49 -12.31 10.41 -9.31 -7.54zm73.62 16.93l4.62 4.91c2.33,2.48 4.45,3.73 6.35,3.77 1.91,0.03 4.14,-1.17 6.7,-3.58 2.28,-2.15 3.37,-4.17 3.31,-6.08 -0.08,-1.92 -1.42,-4.26 -4.03,-7.04l-3.95 -4.2 -12.98 12.22zm-34.26 16.67l45.87 -43.17 14.41 15.31c4.35,4.63 6.56,8.84 6.59,12.65 0.04,3.8 -2.07,7.7 -6.32,11.7 -2.97,2.8 -5.83,4.46 -8.57,4.99 -2.75,0.52 -5.27,-0.14 -7.57,-1.98 2.75,5.06 1.31,10.4 -4.31,16.02 -0.26,0.24 -0.45,0.42 -0.59,0.56l-5.85 5.97c-1.65,1.71 -2.83,3.22 -3.54,4.56 -0.7,1.33 -1.08,2.74 -1.13,4.2l-9.53 -10.13c0.54,-0.97 1.29,-2 2.22,-3.1 0.93,-1.11 2.34,-2.56 4.2,-4.39l4.69 -4.64 1.22 -1.15c2.66,-2.51 3.96,-4.8 3.88,-6.85 -0.07,-2.07 -1.74,-4.85 -5,-8.31l-2.75 -2.92 -20.14 18.96 -7.77 -8.26zm53.93 67.28l23.31 -13.02 23.62 -32.12 6.34 11.35 -16.02 19.87 25.26 -3.33 6.16 11.03 -39.6 3.52 -23.31 13.03 -5.76 -10.33zm42.57 26.59l4.11 9.1 22.01 -15.45 -26.11 6.35zm-29.98 -4.96l63.26 -12.98 6.48 14.35 -51.52 38.96 -5.2 -11.52 13.15 -9.35 -5.56 -12.31 -15.67 3.76 -4.93 -10.92zm21.66 52.29l49.92 -16.59 -4.26 -12.81 9.86 -3.28 12.22 36.77 -9.85 3.27 -4.26 -12.81 -49.92 16.59 -3.7 -11.15zm47.32 36.35l1.1 6.65c0.55,3.36 1.61,5.58 3.16,6.67 1.57,1.09 4.08,1.34 7.56,0.77 3.09,-0.5 5.13,-1.58 6.14,-3.2 1,-1.64 1.2,-4.33 0.57,-8.09l-0.93 -5.69 -17.59 2.89zm-37.72 -5.28l62.16 -10.23 3.41 20.74c1.03,6.27 0.51,11 -1.59,14.17 -2.08,3.17 -6.01,5.23 -11.77,6.18 -4.03,0.67 -7.33,0.44 -9.9,-0.65 -2.57,-1.11 -4.3,-3.06 -5.18,-5.87 -0.54,5.74 -4.71,9.37 -12.51,10.89 -0.35,0.06 -0.61,0.1 -0.8,0.13l-8.18 1.69c-2.33,0.5 -4.15,1.09 -5.49,1.81 -1.32,0.72 -2.43,1.68 -3.28,2.86l-2.26 -13.72c0.99,-0.5 2.19,-0.94 3.57,-1.33 1.39,-0.4 3.37,-0.82 5.94,-1.3l6.47 -1.23 1.65 -0.28c3.61,-0.59 5.96,-1.77 7.05,-3.52 1.1,-1.75 1.26,-4.99 0.49,-9.69l-0.65 -3.95 -27.29 4.49 -1.84 -11.19zm33.27 61.42l0.12 9.98 26.35 -5.34 -26.48 -4.64zm-25.48 -16.55l63.16 13.44 0.19 15.74 -62.82 15.06 -0.15 -12.63 15.79 -3.3 -0.16 -13.5 -15.87 -2.84 -0.14 -11.98z"/>
    </g>
    <g>
     <path class="fil5" d="M102.81 571.99c-3.66,-7.09 -0.88,-15.81 6.22,-19.47 7.09,-3.66 15.81,-0.88 19.47,6.22 3.66,7.09 0.88,15.81 -6.22,19.47 -7.09,3.66 -15.81,0.88 -19.47,-6.22z"/>
     <path class="fil5" d="M870.96 571.99c-3.66,-7.09 -0.88,-15.81 6.22,-19.47 7.09,-3.66 15.81,-0.88 19.47,6.22 3.66,7.09 0.88,15.81 -6.22,19.47 -7.09,3.66 -15.81,0.88 -19.47,-6.22z"/>
    </g>
    <g>
     <path class="fil9" d="M191.22 696.15l-39.94 -75.34 -1.87 5.75 13.73 36.55 -17.82 9.22 -0.11 -0.22c3.81,-5.31 4.93,-8.54 5.22,-11.2 0.24,-2.5 -1.03,-6.85 -2.28,-9.28 -5.12,-9.91 -15.46,-12.65 -23.49,-8.5 -8.25,4.26 -12.09,20.05 -7.37,29.19 1.82,3.52 7.08,7.5 11.09,9.05l-9.74 4.89 -1.76 13.59 22.34 -11.54c3.84,0.95 14.22,7.02 15.76,9.98 0.85,1.65 0.06,4.16 -1.71,5.07 -2.86,1.48 -13.82,2.12 -21.31,1.67l-2.05 12.77c6.27,0.8 16.11,-0.93 20.62,-3.26 10.24,-5.29 14.74,-16.82 10.93,-24.19 -1.36,-2.64 -6.8,-7.22 -10.03,-8.34l17.08 -8.86 18.6 26.08 4.12 -3.07zm-51.47 -20.81c-3.73,-1.56 -17.08,-9.86 -18.73,-13.05 -1.08,-2.09 0.15,-5.37 3.89,-7.31 5.17,-2.67 12.96,-0.56 15.69,4.72 1.76,3.41 1.96,10 -0.85,15.64z"/>
     <path class="fil9" d="M172.21 640.35c2.96,7.49 -3.69,22.36 -3.69,22.36l3.18 8.07c0,0 18.28,-13.74 21.98,-17.86 6.17,-6.96 3.66,-10.63 2.3,-14.09 -0.82,-2.07 -1.16,-1.94 -2.78,-1.3 -1.15,0.46 -5.31,3.43 -7.54,4.84 1.85,6.72 2.82,6.48 -1.74,12.14 -3.63,4.63 -7.05,6.78 -12.04,11.01l-1.04 -2.65c6.75,-7.86 9.99,-21.92 11.27,-25.76 1.03,-3.47 0.81,-6.05 0.17,-7.66 -0.91,-2.3 -1.59,-2.7 -3.32,-2.02 -1.5,0.59 -7.11,5.6 -9.54,7.89 0.76,0.9 1.69,2.26 2.78,5.03z"/>
     <path class="fil9" d="M180.29 774.42l0.75 13.59 46.16 -36.12 7.97 4.47 1.74 -4.51 -27.04 -29.73 -23.75 -34.96 -0.89 9.42 34 46.89 -12.4 9.8c0.42,-3.48 -1.04,-8.95 -2.88,-11.29 -2.14,-2.73 -7.19,-4.74 -13.11,-4.67 2.26,-8.55 1.77,-13.99 -1.29,-17.89 -4.89,-6.24 -15.53,-7.34 -22.83,-1.6 -6.24,4.9 -10.75,14.59 -12.51,37.23l7.05 1.55c0.16,-13.83 1.25,-22.87 7.48,-27.77 5.07,-3.98 11.78,-4.05 15.38,0.53 1.99,2.53 2.48,5.77 1.55,8.39 -1.53,0.26 -4.91,1.17 -6.5,1.95l0.87 11.13c10.75,-3.56 17.73,-1.48 21.56,3.39 0.46,0.59 1.05,1.54 1.39,2.37l-22.7 17.83z"/>
     <polygon class="fil9" points="205.52,809.02 244.29,768.31 256.31,774.97 256.41,768.91 229.25,743.43 230.47,753.72 236.17,760.76 202.91,795.77 "/>
     <path class="fil9" d="M234.87 843.24l5.91 0.72 1.13 -19.62c14.89,2.92 29.4,-1.25 36.15,-9.81 2.38,-3.01 4.44,-9.7 3.72,-16.59l11.34 4.34 1.95 -5.89 -42.78 -31.35 -1.03 7.81 9.36 9.33c-3.75,0.35 -7.07,2.42 -8.45,4.17 -3.84,4.86 -3.76,11.56 5.9,27.7 -6.72,1.32 -12.37,1.28 -14.31,-0.26 -0.58,-0.46 -0.78,-1.41 -0.58,-2.67 0.83,-4.24 0.63,-6.6 -0.53,-7.52 -2.14,-1.69 -5.58,-1.72 -7.19,0.31 -4.15,5.25 -5.49,9.56 -5.19,11.37 0.42,2.07 3.75,5.65 4.92,6.57 1.56,1.23 2.06,2.58 1.75,4.38 -0.2,1.26 -1.79,13.26 -2.06,17zm27.41 -49.7c3.46,-4.38 8.09,-4.66 11.01,-2.35 2.72,2.15 4.17,6.92 -1.13,13.63 -1.92,2.43 -6.56,6.5 -10.07,7.36 -3.51,-7.35 -3.11,-14.45 0.19,-18.63z"/>
     <polygon class="fil9" points="276.63,861.04 304.53,812.45 315.71,815.03 311.14,808.76 286.85,790.49 287,799.94 295.1,806.72 270.96,848.78 "/>
     <path class="fil5" d="M317.44 819.7c-78.67,-42.06 -140.29,-111.8 -171.87,-196.22l6.4 -10.27c29.34,83.67 88.76,153.18 165.3,195.57l0.18 10.93z"/>
     <path class="fil9" d="M351.7 872.23l18.77 6.38 -4.82 13.8 8.16 11.02 18.28 -53.8 11.14 1.22 -2.64 -7.16 -30.99 -8.17 -32.17 -14.45 2.92 9.1 12.52 3.41 -8.52 24.9 -3.4 -1.16c-1.88,-0.64 -3.37,0.3 -3.81,1.58 -1.43,4.22 5.69,19.07 8.85,20.15 1.88,0.64 3.37,0.1 3.93,-1.54l1.8 -5.28zm30.02 -27.96l-8.14 24.4 -18.53 -6.3 8.14 -24.41 18.53 6.3z"/>
     <polygon class="fil9" points="833.65,744.63 789.93,710.3 796.87,697.59 790.55,697.66 772.35,721.69 777.75,726.24 783.33,719.13 820.7,748.48 "/>
     <path class="fil9" d="M835.45 681.09c-16.48,4.82 -21.46,7.53 -23.93,11.83 -2.16,3.76 -3.29,8.96 -3.13,14.91l11.71 -0.99c-0.16,-4.95 1,-9.71 2.3,-11.96 2.72,-4.73 6.45,-7.01 9.94,-7.86l2.5 32.71 10.85 -3.48 -3.2 -31.26 -7.04 -3.9zm7.04 3.9l14.93 8.57 12.26 -5.68 -49.01 -28.13 4.57 -13.64 -8.84 1.47 -10.21 28 -23.7 31.08 8.91 -2.37 24.21 -34.83 19.9 11.52 6.98 4.01z"/>
     <polygon class="fil9" points="884.24,656.48 832.7,633.28 833.96,620.38 827.52,621.1 815.94,654.09 822.78,650.23 828.41,643.34 872.57,663.3 "/>
     <path class="fil9" d="M792.88 764.14c2.7,2.67 5.41,5.35 8.12,8.02 4.55,-1.21 9.1,-2.42 13.65,-3.63 -13.93,-12.35 -28.55,-25.35 -42.48,-37.7 2.74,-3.09 3.4,-6.5 6.14,-9.59 -3.97,-0.76 -3.58,-0.43 -7.55,-1.19 -11.84,18.78 -20.95,29.57 -39.94,45.32 3.16,0.46 -2.96,6.57 0.2,7.04 5.1,-4.56 11.82,-8.3 16.93,-12.86 3.27,0.42 6.17,2 7.29,2.98 0.83,0.74 1.05,2.92 0.69,4.26 -0.63,2.58 -3.68,10.31 -5.44,13.05 13.92,8.2 29.08,7.91 36.23,-0.16 2.96,-3.33 5.45,-10.07 6.17,-15.55zm-27.6 -24.14c5.78,5.12 11.56,10.24 17.33,15.37 0.05,6.67 -3.57,18.03 -6.61,21.46 -3.94,4.45 -7.19,4.56 -9.69,2.34 -1.94,-1.73 -1.9,-3.84 -0.24,-7.01 3.78,-7.25 4.06,-9.81 2.3,-11.37 -1.67,-1.48 -8.85,-4.2 -15.74,-6.51 4.22,-4.76 8.43,-9.52 12.65,-14.27z"/>
     <path class="fil5" d="M838.1 619.13c-21.61,60.1 -58.39,112.98 -105.72,153.99l-11.64 -2.61c47.53,-39.58 84.68,-91.2 106.78,-150.17l10.58 -1.21z"/>
     <path class="fil9" d="M599.49 841.9l2.74 -2.74c-10.62,-9.13 -18.1,-15.9 -25.11,-18.91 -5.64,-2.43 -9.17,-1.64 -11.28,-0.93 -2.82,0.94 -6.26,2.35 -5.52,4.58 0.47,1.41 1.41,2.27 8.54,8.77 1.57,-1.18 4.07,-2.67 6.42,-3.45 2.35,-0.78 4.7,-0.39 6.89,0.7 4.67,2.23 8.89,5.13 17.32,11.98z"/>
     <polygon class="fil9" points="402.91,909.63 418.12,855.88 433.65,855.32 425.14,852.13 404.45,847.04 399.31,848.54 407.92,851.47 394.42,899.12 "/>
     <path class="fil9" d="M455.74 884.55l-2.08 25.93 10.49 8.67 4.59 -57.06 11 -1.34 -4.12 -7.16 -54.18 -2.44 3.27 3.89 32.79 4.23 -1.19 14.89 -29.88 -2.4c-1.73,-0.14 -3.36,1.59 -3.48,3.08 -0.39,4.94 8.05,17.42 11.13,17.67 2.47,0.19 3.91,-0.69 4.06,-2.54l0.36 -4.44c0.13,-1.61 1.18,-2.27 2.41,-2.17l14.82 1.19z"/>
     <path class="fil9" d="M532.03 891.81l1.3 17.04 11.7 6.94 -4.23 -56.06 11.03 -4.12 -5.94 -3.73 -31.94 4.72 -42.61 -1.67 7.46 5.99 17.15 2.08 1.66 18.76c0.08,0.86 -0.13,1.5 -0.5,1.53 -1.36,0.1 -4.47,-3.26 -7.07,-3.07 -2.1,0.16 -4.54,2.33 -4.37,4.68 0.26,3.33 4,8.52 6.32,11.2l22.55 25.37 4.48 -4.81c-7.07,-6.42 -12.26,-10.87 -17.73,-17.54 2.2,-2.15 5.69,-5.15 7.85,-9.42 3.43,2.6 7.51,5.64 11.83,5.31 4.2,-0.32 7.27,-0.8 11.06,-3.2zm-2.59 -30.86l1.44 19.02c-0.88,1.56 -10.46,4.64 -12.43,4.8 -3.21,0.24 -5.57,0.3 -9.23,-0.54l-1.64 -21.61 21.86 -1.66z"/>
     <path class="fil9" d="M546.91 857.73l17.25 -1.92 4.11 17.51c0.31,1.33 0.02,2.28 -0.83,2.48 -2.05,0.47 -5.65,-1.88 -8.78,-1.15 -1.69,0.39 -3.13,3.52 -2.58,4.79 0.44,1.93 3.34,4.57 8.91,8.88l26.04 20.3 3.37 -5.23c-10.16,-6.56 -16.21,-10.75 -19.81,-14.24 3.53,-3.99 6.19,-9.06 5.11,-13.64l-5.14 -21.96 20.18 -5.96 -7.68 -4.48 -37.59 6.9 -2.57 7.73z"/>
     <polygon class="fil9" points="623.4,898.56 607.8,844.18 621.38,837.2 613.42,835.85 584.49,844.98 589.02,847.92 597.56,847.43 610.65,894.07 "/>
     <path class="fil9" d="M676.47 855.75l4.69 10.39 13.37 2.52 -23.77 -52.31 8.88 -7.73 -6.87 -2.85 -29.79 17.86 -33.08 10.56 8.65 4.13 42.03 -16.48 7.55 16.07c-4.63,-2.13 -10,-3.78 -12.37,-4.2 -2.37,-0.43 -6.74,0.73 -9.78,2.11 -10.72,4.85 -15.29,15.2 -11.67,23.22 4.03,8.92 19.26,14.94 29.53,10.3 4.74,-2.14 8.63,-6.48 12.62,-13.59zm-21.49 8.08c-3.16,1.43 -6.67,0.29 -8.4,-3.54 -2.7,-5.98 -0.48,-13.1 5.5,-15.81 5.53,-2.5 12.42,-2.89 18.72,-0.98l0.61 1.35c-3.86,6.5 -11.69,16.84 -16.43,18.98z"/>
     <path class="fil9" d="M672.53 812.85l17.12 -7.91 9.24 14.38c0.74,1.15 0.79,2.15 0.06,2.61 -1.77,1.14 -5.94,0.14 -8.65,1.88 -1.46,0.94 -1.76,4.37 -0.81,5.38 1.07,1.67 4.69,3.17 11.39,5.35l31.37 10.32 1.41 -6.06c-11.77,-2.74 -18.89,-4.65 -23.46,-6.72 1.97,-4.95 2.75,-10.61 0.21,-14.56l-11.79 -18.34 14.13 -12.81 -5.87 -2 -37.4 26.4 3.05 2.09z"/>
     <path class="fil5" d="M715.42 786.92c-62.16,47.74 -139.95,76.14 -224.38,76.14 -54.28,0 -105.81,-11.73 -152.21,-32.79l-2.45 -11.64c12.97,6.2 26.37,11.64 40.14,16.27 35.96,12.09 74.48,18.65 114.52,18.65 80.58,0 154.97,-26.54 214.9,-71.35l9.48 4.72z"/>
    </g>
   </g>
  </g>
 </g>
</svg>